<svg version="1.1" xmlns="http://www.w3.org/2000/svg" xmlns:xlink="http://www.w3.org/1999/xlink">
    <defs>
        <symbol id="icon-youtube-square" viewBox="0 0 31 32">
            <title>youtube-square</title>
            <path class="path1" d="M18.809 24.33v-3.213q0-1.023-0.594-1.023-0.348 0-0.675 0.327v4.585q0.327 0.327 0.675 0.327 0.594 0 0.594-1.003zM22.575 21.833h1.351v-0.696q0-1.044-0.675-1.044t-0.675 1.044v0.696zM10.888 16.389v1.433h-1.637v8.658h-1.515v-8.658h-1.596v-1.433h4.748zM15.002 18.968v7.511h-1.371v-0.819q-0.798 0.921-1.555 0.921-0.675 0-0.86-0.573-0.123-0.327-0.123-1.105v-5.936h1.351v5.526q0 0.491 0.020 0.532 0.020 0.307 0.307 0.307 0.409 0 0.86-0.634v-5.731h1.371zM20.16 21.24v2.988q0 1.064-0.143 1.494-0.246 0.86-1.085 0.86-0.716 0-1.392-0.839v0.737h-1.371v-10.090h1.371v3.295q0.655-0.819 1.392-0.819 0.839 0 1.085 0.86 0.143 0.43 0.143 1.515zM25.297 23.88v0.184q0 0.594-0.041 0.88-0.061 0.45-0.307 0.819-0.553 0.819-1.637 0.819-1.064 0-1.658-0.778-0.43-0.553-0.43-1.76v-2.64q0-1.208 0.409-1.76 0.594-0.778 1.637-0.778t1.596 0.778q0.43 0.573 0.43 1.76v1.555h-2.722v1.33q0 1.044 0.696 1.044 0.491 0 0.614-0.532 0-0.020 0.010-0.143t0.010-0.338v-0.44h1.392zM16.067 7.015v3.193q0 1.044-0.655 1.044t-0.655-1.044v-3.193q0-1.064 0.655-1.064t0.655 1.064zM26.976 21.608q0-3.623-0.389-5.321-0.205-0.901-0.88-1.504t-1.555-0.706q-2.784-0.307-8.433-0.307-5.629 0-8.412 0.307-0.901 0.102-1.566 0.706t-0.87 1.504q-0.409 1.781-0.409 5.321 0 3.602 0.409 5.321 0.205 0.88 0.87 1.494t1.545 0.716q2.804 0.307 8.433 0.307t8.433-0.307q0.88-0.102 1.545-0.716t0.87-1.494q0.409-1.719 0.409-5.321zM11.523 8.284l1.842-6.058h-1.535l-1.044 3.991-1.085-3.991h-1.596l0.491 1.412t0.471 1.412q0.716 2.108 0.941 3.234v4.114h1.515v-4.114zM17.438 9.942v-2.661q0-1.187-0.43-1.781-0.594-0.778-1.596-0.778-1.044 0-1.596 0.778-0.43 0.594-0.43 1.781v2.661q0 1.187 0.43 1.781 0.553 0.778 1.596 0.778 1.003 0 1.596-0.778 0.43-0.553 0.43-1.781zM21.143 12.398h1.371v-7.573h-1.371v5.792q-0.45 0.634-0.86 0.634-0.307 0-0.327-0.327-0.020-0.041-0.020-0.532v-5.567h-1.371v5.997q0 0.757 0.123 1.126 0.225 0.553 0.88 0.553 0.737 0 1.576-0.921v0.819zM31.438 6.176v19.649q0 2.436-1.729 4.165t-4.165 1.729h-19.649q-2.436 0-4.165-1.729t-1.729-4.165v-19.649q0-2.436 1.729-4.165t4.165-1.729h19.649q2.436 0 4.165 1.729t1.729 4.165z"></path>
        </symbol>
    </defs>
</svg>
